<svg height="512pt" viewBox="0 0 512 512" width="512pt" xmlns="http://www.w3.org/2000/svg"><path d="m271 105c8.261719 0 15-6.722656 15-15s-6.738281-15-15-15-15 6.722656-15 15 6.738281 15 15 15zm0 0"/><path d="m271 180c49.628906 0 90-40.371094 90-90s-40.371094-90-90-90-90 40.371094-90 90 40.371094 90 90 90zm0-135c24.8125 0 45 20.1875 45 45s-20.1875 45-45 45-45-20.1875-45-45 20.1875-45 45-45zm0 0"/><path d="m466 270h-6.824219c-4.835937-17.09375-12.246093-33.003906-22.148437-47.519531l40.429687-47.796875c5.039063-5.949219 4.65625-14.78125-.851562-20.289063-22.527344-22.515625-56.835938-28.125-85.253907-13.871093l-11.277343 5.59375c-.945313-.492188-1.988281-.828126-2.945313-1.304688-7.09375 13.671875-16.78125 25.738281-28.273437 35.761719 6.871093 1.375 12.144531 7.148437 12.144531 14.425781 0 8.289062-6.710938 15-15 15h-150c-8.289062 0-15-6.710938-15-15 0-7.277344 5.273438-13.054688 12.148438-14.425781-11.464844-10-21.136719-22.035157-28.226563-35.667969-62.824219 31.570312-102.597656 89.023438-103.714844 152.394531-17.527343-6.152343-31.207031-22.695312-31.207031-42.300781 0-8.289062-6.710938-15-15-15s-15 6.710938-15 15c0 37.230469 28.335938 67.972656 63.960938 73.78125 7.90625 42.488281 32.902343 83.011719 71.949218 111.046875l.0625 27.246094c.054688 24.769531 20.242188 44.925781 45.027344 44.925781 21.621094 0 39.726562-15.320312 44.03125-35.683594 27.101562 7.355469 64.691406 7.367188 91.757812.042969 1.671876 8.570313 5.804688 16.4375 12.070313 22.707031 8.203125 8.214844 19.570313 12.933594 32.167969 12.933594 24.757812 0 44.941406-20.15625 45-44.957031l.0625-22.820313c17.371094-14.371094 31.667968-34.183594 41.894531-54.179687 7.964844-.042969 17.988281-.058594 18.015625-.042969 24.8125 0 46-20.1875 46-45v-30c0-24.8125-21.1875-45-46-45zm-104.855469 30.292969c-8.289062 0-15.144531-6.855469-15.144531-15.144531 0-8.292969 6.855469-15.148438 15.144531-15.148438 8.292969 0 15.148438 6.855469 15.148438 15.144531 0 8.292969-6.855469 15.148438-15.148438 15.148438zm0 0"/></svg>